<svg width="119" height="119" viewBox="0 0 119 119" fill="none" xmlns="http://www.w3.org/2000/svg">
<g clip-path="url(#clip0_30_10)">
<g clip-path="url(#clip1_30_10)">
<path d="M59.5194 0C34.6787 0 27.4137 0.0256362 26.0016 0.1428C20.9039 0.566657 17.7318 1.36953 14.2759 3.09055C11.6126 4.41344 9.5122 5.94682 7.43924 8.09633C3.66401 12.0163 1.37597 16.839 0.547688 22.5716C0.145015 25.3546 0.0278504 25.9222 0.00405787 40.1375C-0.00507234 44.876 0.00405787 51.1121 0.00405787 59.4766C0.00405787 84.304 0.0314933 91.5636 0.150501 92.9734C0.56235 97.9352 1.34026 101.057 2.98766 104.472C6.136 111.008 12.1489 115.915 19.2327 117.746C21.6855 118.377 24.3945 118.725 27.8723 118.89C29.3458 118.954 44.3644 119 59.3922 119C74.42 119 89.4478 118.982 90.8846 118.908C94.9116 118.719 97.25 118.405 99.8354 117.737C106.965 115.897 112.868 111.063 116.08 104.435C117.696 101.103 118.515 97.862 118.886 93.1592C118.966 92.1339 119 75.7865 119 59.4611C119 43.1329 118.963 26.8157 118.883 25.7904C118.508 21.0117 117.688 17.7984 116.021 14.402C114.653 11.6218 113.134 9.54547 110.928 7.42259C106.992 3.66184 102.177 1.37317 96.4409 0.545609C93.6614 0.1437 93.1077 0.024692 78.8853 0H59.5194Z" fill="url(#paint0_radial_30_10)"/>
<path d="M59.5194 0C34.6787 0 27.4137 0.0256362 26.0016 0.1428C20.9039 0.566657 17.7318 1.36953 14.2759 3.09055C11.6126 4.41344 9.5122 5.94682 7.43924 8.09633C3.66401 12.0163 1.37597 16.839 0.547688 22.5716C0.145015 25.3546 0.0278504 25.9222 0.00405787 40.1375C-0.00507234 44.876 0.00405787 51.1121 0.00405787 59.4766C0.00405787 84.304 0.0314933 91.5636 0.150501 92.9734C0.56235 97.9352 1.34026 101.057 2.98766 104.472C6.136 111.008 12.1489 115.915 19.2327 117.746C21.6855 118.377 24.3945 118.725 27.8723 118.89C29.3458 118.954 44.3644 119 59.3922 119C74.42 119 89.4478 118.982 90.8846 118.908C94.9116 118.719 97.25 118.405 99.8354 117.737C106.965 115.897 112.868 111.063 116.08 104.435C117.696 101.103 118.515 97.862 118.886 93.1592C118.966 92.1339 119 75.7865 119 59.4611C119 43.1329 118.963 26.8157 118.883 25.7904C118.508 21.0117 117.688 17.7984 116.021 14.402C114.653 11.6218 113.134 9.54547 110.928 7.42259C106.992 3.66184 102.177 1.37317 96.4409 0.545609C93.6614 0.1437 93.1077 0.024692 78.8853 0H59.5194Z" fill="url(#paint1_radial_30_10)"/>
<path d="M59.5194 0C34.6787 0 27.4137 0.0256362 26.0016 0.1428C20.9039 0.566657 17.7318 1.36953 14.2759 3.09055C11.6126 4.41344 9.5122 5.94682 7.43924 8.09633C3.66401 12.0163 1.37597 16.839 0.547688 22.5716C0.145015 25.3546 0.0278504 25.9222 0.00405787 40.1375C-0.00507234 44.876 0.00405787 51.1121 0.00405787 59.4766C0.00405787 84.304 0.0314933 91.5636 0.150501 92.9734C0.56235 97.9352 1.34026 101.057 2.98766 104.472C6.136 111.008 12.1489 115.915 19.2327 117.746C21.6855 118.377 24.3945 118.725 27.8723 118.89C29.3458 118.954 44.3644 119 59.3922 119C74.42 119 89.4478 118.982 90.8846 118.908C94.9116 118.719 97.25 118.405 99.8354 117.737C106.965 115.897 112.868 111.063 116.08 104.435C117.696 101.103 118.515 97.862 118.886 93.1592C118.966 92.1339 119 75.7865 119 59.4611C119 43.1329 118.963 26.8157 118.883 25.7904C118.508 21.0117 117.688 17.7984 116.021 14.402C114.653 11.6218 113.134 9.54547 110.928 7.42259C106.992 3.66184 102.177 1.37317 96.4409 0.545609C93.6614 0.1437 93.1077 0.024692 78.8853 0H59.5194Z" fill="url(#paint2_radial_30_10)"/>
<path d="M59.5194 0C34.6787 0 27.4137 0.0256362 26.0016 0.1428C20.9039 0.566657 17.7318 1.36953 14.2759 3.09055C11.6126 4.41344 9.5122 5.94682 7.43924 8.09633C3.66401 12.0163 1.37597 16.839 0.547688 22.5716C0.145015 25.3546 0.0278504 25.9222 0.00405787 40.1375C-0.00507234 44.876 0.00405787 51.1121 0.00405787 59.4766C0.00405787 84.304 0.0314933 91.5636 0.150501 92.9734C0.56235 97.9352 1.34026 101.057 2.98766 104.472C6.136 111.008 12.1489 115.915 19.2327 117.746C21.6855 118.377 24.3945 118.725 27.8723 118.89C29.3458 118.954 44.3644 119 59.3922 119C74.42 119 89.4478 118.982 90.8846 118.908C94.9116 118.719 97.25 118.405 99.8354 117.737C106.965 115.897 112.868 111.063 116.08 104.435C117.696 101.103 118.515 97.862 118.886 93.1592C118.966 92.1339 119 75.7865 119 59.4611C119 43.1329 118.963 26.8157 118.883 25.7904C118.508 21.0117 117.688 17.7984 116.021 14.402C114.653 11.6218 113.134 9.54547 110.928 7.42259C106.992 3.66184 102.177 1.37317 96.4409 0.545609C93.6614 0.1437 93.1077 0.024692 78.8853 0H59.5194Z" fill="url(#paint3_radial_30_10)"/>
<path d="M59.5242 15.2798C47.5079 15.2798 45.9999 15.3323 41.2804 15.547C36.5702 15.7625 33.355 16.5077 30.5418 17.601C27.6318 18.7303 25.1632 20.2408 22.704 22.6992C20.2429 25.1567 18.7311 27.6233 17.5973 30.5303C16.5004 33.3424 15.7538 36.5561 15.5418 41.261C15.3307 45.9769 15.2754 47.4848 15.2754 59.4921C15.2754 71.4994 15.3289 73.0017 15.5427 77.7176C15.7593 82.4244 16.505 85.6372 17.5982 88.4483C18.7293 91.3562 20.241 93.8229 22.7012 96.2803C25.1596 98.7397 27.6281 100.254 30.5362 101.383C33.3513 102.477 36.5674 103.222 41.2767 103.437C45.9962 103.652 47.5033 103.704 59.5186 103.704C71.5358 103.704 73.0392 103.652 77.7587 103.437C82.4689 103.222 85.6878 102.477 88.5028 101.383C91.412 100.254 93.8768 98.7397 96.3352 96.2803C98.7963 93.8229 100.308 91.3562 101.442 88.4493C102.529 85.6372 103.276 82.4235 103.497 77.7186C103.709 73.0026 103.765 71.4994 103.765 59.4921C103.765 47.4847 103.709 45.9779 103.497 41.2619C103.276 36.5551 102.529 33.3424 101.442 30.5312C100.308 27.6233 98.7963 25.1567 96.3352 22.6992C93.874 20.2399 91.4129 18.7293 88.5001 17.601C85.6795 16.5077 82.4625 15.7625 77.7522 15.547C73.0327 15.3323 71.5302 15.2798 59.5103 15.2798H59.5242ZM55.555 23.2473C56.7331 23.2454 58.0475 23.2473 59.5242 23.2473C71.3376 23.2473 72.7378 23.2896 77.4028 23.5015C81.7168 23.6986 84.058 24.4189 85.6177 25.024C87.6825 25.8254 89.1546 26.7833 90.7022 28.3307C92.2508 29.8782 93.2094 31.3519 94.0132 33.4151C94.6188 34.9718 95.3406 37.3113 95.5369 41.6221C95.7489 46.2827 95.795 47.6828 95.795 59.482C95.795 71.2811 95.7489 72.6812 95.5369 77.3419C95.3396 81.6525 94.6188 83.9921 94.0132 85.5488C93.2113 87.612 92.2508 89.0812 90.7022 90.6276C89.1537 92.1751 87.6834 93.133 85.6177 93.9343C84.0599 94.5423 81.7168 95.2607 77.4028 95.4578C72.7387 95.6697 71.3376 95.7157 59.5242 95.7157C47.7098 95.7157 46.3096 95.6697 41.6455 95.4578C37.3316 95.2589 34.9903 94.5386 33.4297 93.9334C31.3649 93.1321 29.8901 92.1741 28.3415 90.6267C26.7929 89.0793 25.8343 87.6093 25.0305 85.5451C24.4249 83.9884 23.7032 81.6488 23.5068 77.3382C23.2948 72.6774 23.2524 71.2774 23.2524 59.4709C23.2524 47.6644 23.2948 46.2717 23.5068 41.611C23.7041 37.3003 24.4249 34.9607 25.0305 33.4023C25.8324 31.339 26.7929 29.8653 28.3415 28.3179C29.8901 26.7704 31.3649 25.8125 33.4297 25.0093C34.9894 24.4014 37.3316 23.683 41.6455 23.4849C45.7271 23.3007 47.3088 23.2454 55.555 23.2362L55.555 23.2473ZM83.1418 30.5883C80.2106 30.5883 77.8324 32.962 77.8324 35.8919C77.8324 38.821 80.2106 41.1974 83.1418 41.1974C86.073 41.1974 88.4513 38.821 88.4513 35.8919C88.4513 32.9629 86.073 30.5865 83.1418 30.5865L83.1418 30.5883ZM59.5242 36.7872C46.9761 36.7872 36.8025 46.9533 36.8025 59.4921C36.8025 72.0309 46.9761 82.1923 59.5242 82.1923C72.0722 82.1923 82.2422 72.0309 82.2422 59.4921C82.2422 46.9533 72.0713 36.7872 59.5233 36.7872H59.5242ZM59.5242 44.7547C67.6689 44.7547 74.2725 51.3524 74.2725 59.4921C74.2725 67.6308 67.6689 74.2295 59.5242 74.2295C51.3785 74.2295 44.7758 67.6308 44.7758 59.4921C44.7758 51.3524 51.3785 44.7547 59.5242 44.7547Z" fill="white"/>
</g>
</g>
<defs>
<radialGradient id="paint0_radial_30_10" cx="0" cy="0" r="1" gradientUnits="userSpaceOnUse" gradientTransform="translate(115.158 55.7768) rotate(164.25) scale(76.0342 54.779)">
<stop stop-color="#FF005F"/>
<stop offset="1" stop-color="#FC01D8"/>
</radialGradient>
<radialGradient id="paint1_radial_30_10" cx="0" cy="0" r="1" gradientUnits="userSpaceOnUse" gradientTransform="translate(31.6085 128.165) rotate(-90) scale(94.988 100.78)">
<stop stop-color="#FFCC00"/>
<stop offset="0.1242" stop-color="#FFCC00"/>
<stop offset="0.5672" stop-color="#FE4A05"/>
<stop offset="0.6942" stop-color="#FF0F3F"/>
<stop offset="1" stop-color="#FE0657" stop-opacity="0"/>
</radialGradient>
<radialGradient id="paint2_radial_30_10" cx="0" cy="0" r="1" gradientUnits="userSpaceOnUse" gradientTransform="translate(62.5071 117.322) rotate(-59.8703) scale(39.2784 51.136)">
<stop stop-color="#FFCC00"/>
<stop offset="1" stop-color="#FFCC00" stop-opacity="0"/>
</radialGradient>
<radialGradient id="paint3_radial_30_10" cx="0" cy="0" r="1" gradientUnits="userSpaceOnUse" gradientTransform="translate(16.1457 4.84565) rotate(164.274) scale(75.1909 25.6175)">
<stop stop-color="#780CFF"/>
<stop offset="1" stop-color="#820BFF" stop-opacity="0"/>
</radialGradient>
<clipPath id="clip0_30_10">
<rect width="119" height="119" fill="white"/>
</clipPath>
<clipPath id="clip1_30_10">
<rect width="119" height="119" fill="white"/>
</clipPath>
</defs>
</svg>
