<svg width="37" height="37" viewBox="0 0 37 37" fill="none" xmlns="http://www.w3.org/2000/svg">
<g clip-path="url(#clip0_30_10)">
<g clip-path="url(#clip1_30_10)">
<path d="M18.5558 0.650024C11.1036 0.650024 8.92408 0.657715 8.50042 0.692864C6.97111 0.820022 6.01948 1.06088 4.98271 1.57719C4.18374 1.97406 3.55361 2.43407 2.93172 3.07892C1.79915 4.25493 1.11274 5.70172 0.864258 7.42151C0.743456 8.25641 0.708306 8.42668 0.701169 12.6913C0.698429 14.1128 0.701169 15.9836 0.701169 18.493C0.701169 25.9412 0.709399 28.1191 0.745101 28.5421C0.868656 30.0306 1.10203 30.9671 1.59625 31.9915C2.54075 33.9524 4.34462 35.4245 6.46975 35.9738C7.20559 36.1633 8.0183 36.2676 9.06164 36.3171C9.50369 36.3363 14.0093 36.35 18.5176 36.35C23.026 36.35 27.5343 36.3445 27.9653 36.3226C29.1734 36.2657 29.8749 36.1715 30.6506 35.971C32.7894 35.419 34.5604 33.9689 35.5241 31.9805C36.0087 30.9808 36.2544 30.0086 36.3656 28.5978C36.3898 28.2902 36.4 23.386 36.4 18.4884C36.4 13.5899 36.389 8.69473 36.3648 8.38713C36.2522 6.95352 36.0065 5.98955 35.5062 4.97063C35.0958 4.13655 34.64 3.51367 33.9783 2.8768C32.7974 1.74858 31.3532 1.06198 29.6322 0.813707C28.7984 0.693134 28.6323 0.657432 24.3655 0.650024H18.5558Z" fill="url(#paint0_radial_30_10)"/>
<path d="M18.5558 0.650024C11.1036 0.650024 8.92408 0.657715 8.50042 0.692864C6.97111 0.820022 6.01948 1.06088 4.98271 1.57719C4.18374 1.97406 3.55361 2.43407 2.93172 3.07892C1.79915 4.25493 1.11274 5.70172 0.864258 7.42151C0.743456 8.25641 0.708306 8.42668 0.701169 12.6913C0.698429 14.1128 0.701169 15.9836 0.701169 18.493C0.701169 25.9412 0.709399 28.1191 0.745101 28.5421C0.868656 30.0306 1.10203 30.9671 1.59625 31.9915C2.54075 33.9524 4.34462 35.4245 6.46975 35.9738C7.20559 36.1633 8.0183 36.2676 9.06164 36.3171C9.50369 36.3363 14.0093 36.35 18.5176 36.35C23.026 36.35 27.5343 36.3445 27.9653 36.3226C29.1734 36.2657 29.8749 36.1715 30.6506 35.971C32.7894 35.419 34.5604 33.9689 35.5241 31.9805C36.0087 30.9808 36.2544 30.0086 36.3656 28.5978C36.3898 28.2902 36.4 23.386 36.4 18.4884C36.4 13.5899 36.389 8.69473 36.3648 8.38713C36.2522 6.95352 36.0065 5.98955 35.5062 4.97063C35.0958 4.13655 34.64 3.51367 33.9783 2.8768C32.7974 1.74858 31.3532 1.06198 29.6322 0.813707C28.7984 0.693134 28.6323 0.657432 24.3655 0.650024H18.5558Z" fill="url(#paint1_radial_30_10)"/>
<path d="M18.5558 0.650024C11.1036 0.650024 8.92408 0.657715 8.50042 0.692864C6.97111 0.820022 6.01948 1.06088 4.98271 1.57719C4.18374 1.97406 3.55361 2.43407 2.93172 3.07892C1.79915 4.25493 1.11274 5.70172 0.864258 7.42151C0.743456 8.25641 0.708306 8.42668 0.701169 12.6913C0.698429 14.1128 0.701169 15.9836 0.701169 18.493C0.701169 25.9412 0.709399 28.1191 0.745101 28.5421C0.868656 30.0306 1.10203 30.9671 1.59625 31.9915C2.54075 33.9524 4.34462 35.4245 6.46975 35.9738C7.20559 36.1633 8.0183 36.2676 9.06164 36.3171C9.50369 36.3363 14.0093 36.35 18.5176 36.35C23.026 36.35 27.5343 36.3445 27.9653 36.3226C29.1734 36.2657 29.8749 36.1715 30.6506 35.971C32.7894 35.419 34.5604 33.9689 35.5241 31.9805C36.0087 30.9808 36.2544 30.0086 36.3656 28.5978C36.3898 28.2902 36.4 23.386 36.4 18.4884C36.4 13.5899 36.389 8.69473 36.3648 8.38713C36.2522 6.95352 36.0065 5.98955 35.5062 4.97063C35.0958 4.13655 34.64 3.51367 33.9783 2.8768C32.7974 1.74858 31.3532 1.06198 29.6322 0.813707C28.7984 0.693134 28.6323 0.657432 24.3655 0.650024H18.5558Z" fill="url(#paint2_radial_30_10)"/>
<path d="M18.5558 0.650024C11.1036 0.650024 8.92408 0.657715 8.50042 0.692864C6.97111 0.820022 6.01948 1.06088 4.98271 1.57719C4.18374 1.97406 3.55361 2.43407 2.93172 3.07892C1.79915 4.25493 1.11274 5.70172 0.864258 7.42151C0.743456 8.25641 0.708306 8.42668 0.701169 12.6913C0.698429 14.1128 0.701169 15.9836 0.701169 18.493C0.701169 25.9412 0.709399 28.1191 0.745101 28.5421C0.868656 30.0306 1.10203 30.9671 1.59625 31.9915C2.54075 33.9524 4.34462 35.4245 6.46975 35.9738C7.20559 36.1633 8.0183 36.2676 9.06164 36.3171C9.50369 36.3363 14.0093 36.35 18.5176 36.35C23.026 36.35 27.5343 36.3445 27.9653 36.3226C29.1734 36.2657 29.8749 36.1715 30.6506 35.971C32.7894 35.419 34.5604 33.9689 35.5241 31.9805C36.0087 30.9808 36.2544 30.0086 36.3656 28.5978C36.3898 28.2902 36.4 23.386 36.4 18.4884C36.4 13.5899 36.389 8.69473 36.3648 8.38713C36.2522 6.95352 36.0065 5.98955 35.5062 4.97063C35.0958 4.13655 34.64 3.51367 33.9783 2.8768C32.7974 1.74858 31.3532 1.06198 29.6322 0.813707C28.7984 0.693134 28.6323 0.657432 24.3655 0.650024H18.5558Z" fill="url(#paint3_radial_30_10)"/>
<path d="M18.5573 5.23395C14.9525 5.23395 14.5001 5.24969 13.0842 5.31408C11.6712 5.37874 10.7066 5.60229 9.86263 5.9303C8.98962 6.26907 8.24906 6.72224 7.51129 7.45975C6.77295 8.19701 6.31943 8.937 5.9793 9.80908C5.65022 10.6527 5.42623 11.6168 5.36263 13.0283C5.29931 14.4431 5.28271 14.8954 5.28271 18.4976C5.28271 22.0998 5.29876 22.5505 5.3629 23.9653C5.4279 25.3773 5.65161 26.3411 5.97957 27.1845C6.31888 28.0569 6.77239 28.7969 7.51045 29.5341C8.24797 30.2719 8.98852 30.7262 9.86097 31.0649C10.7055 31.3929 11.6703 31.6165 13.0831 31.6812C14.499 31.7455 14.9511 31.7613 18.5557 31.7613C22.1608 31.7613 22.6119 31.7455 24.0277 31.6812C25.4408 31.6165 26.4064 31.3929 27.2509 31.0649C28.1237 30.7262 28.8631 30.2719 29.6006 29.5341C30.339 28.7969 30.7925 28.0569 31.1326 27.1848C31.4589 26.3411 31.6829 25.377 31.7493 23.9656C31.8129 22.5508 31.8295 22.0998 31.8295 18.4976C31.8295 14.8954 31.8129 14.4434 31.7493 13.0286C31.6829 11.6165 31.4589 10.6527 31.1326 9.80937C30.7925 8.937 30.339 8.19699 29.6006 7.45975C28.8623 6.72196 28.124 6.26879 27.2501 5.93029C26.4039 5.60229 25.4388 5.37874 24.0258 5.31408C22.6099 5.24969 22.1592 5.23395 18.5532 5.23395H18.5573ZM17.3666 7.62418C17.72 7.62362 18.1143 7.62418 18.5573 7.62418C22.1014 7.62418 22.5214 7.63689 23.921 7.70044C25.2151 7.75958 25.9175 7.97565 26.3854 8.1572C27.0048 8.3976 27.4465 8.68499 27.9108 9.14921C28.3753 9.61345 28.6629 10.0556 28.9041 10.6745C29.0857 11.1415 29.3023 11.8434 29.3612 13.1366C29.4248 14.5348 29.4386 14.9548 29.4386 18.4946C29.4386 22.0343 29.4248 22.4543 29.3612 23.8526C29.302 25.1458 29.0857 25.8476 28.9041 26.3146C28.6635 26.9336 28.3753 27.3743 27.9108 27.8383C27.4462 28.3025 27.0051 28.5899 26.3854 28.8303C25.9181 29.0127 25.2151 29.2282 23.921 29.2873C22.5217 29.3509 22.1014 29.3647 18.5573 29.3647C15.013 29.3647 14.593 29.3509 13.1937 29.2873C11.8996 29.2277 11.1972 29.0116 10.729 28.83C10.1096 28.5896 9.66712 28.3022 9.20255 27.838C8.73798 27.3738 8.45039 26.9328 8.20925 26.3135C8.02757 25.8465 7.81104 25.1446 7.75215 23.8514C7.68854 22.4532 7.67582 22.0332 7.67582 18.4913C7.67582 14.9493 7.68854 14.5315 7.75215 13.1333C7.81133 11.8401 8.02757 11.1382 8.20925 10.6707C8.44983 10.0517 8.73798 9.60958 9.20255 9.14536C9.66712 8.68112 10.1096 8.39375 10.729 8.15279C11.1969 7.97041 11.8996 7.75488 13.1937 7.69546C14.4182 7.64019 14.8927 7.62362 17.3666 7.62084L17.3666 7.62418ZM25.6426 9.82649C24.7633 9.82649 24.0498 10.5386 24.0498 11.4176C24.0498 12.2963 24.7633 13.0092 25.6426 13.0092C26.522 13.0092 27.2355 12.2963 27.2355 11.4176C27.2355 10.5389 26.522 9.82595 25.6426 9.82595L25.6426 9.82649ZM18.5573 11.6862C14.7929 11.6862 11.7408 14.736 11.7408 18.4976C11.7408 22.2593 14.7929 25.3077 18.5573 25.3077C22.3218 25.3077 25.3727 22.2593 25.3727 18.4976C25.3727 14.736 22.3215 11.6862 18.5571 11.6862H18.5573ZM18.5573 14.0764C21.0008 14.0764 22.9819 16.0557 22.9819 18.4976C22.9819 20.9392 21.0008 22.9188 18.5573 22.9188C16.1136 22.9188 14.1328 20.9392 14.1328 18.4976C14.1328 16.0557 16.1136 14.0764 18.5573 14.0764Z" fill="white"/>
</g>
</g>
<defs>
<radialGradient id="paint0_radial_30_10" cx="0" cy="0" r="1" gradientUnits="userSpaceOnUse" gradientTransform="translate(35.2472 17.3831) rotate(164.25) scale(22.8103 16.4337)">
<stop stop-color="#FF005F"/>
<stop offset="1" stop-color="#FC01D8"/>
</radialGradient>
<radialGradient id="paint1_radial_30_10" cx="0" cy="0" r="1" gradientUnits="userSpaceOnUse" gradientTransform="translate(10.1825 39.0997) rotate(-90) scale(28.4964 30.2341)">
<stop stop-color="#FFCC00"/>
<stop offset="0.1242" stop-color="#FFCC00"/>
<stop offset="0.5672" stop-color="#FE4A05"/>
<stop offset="0.6942" stop-color="#FF0F3F"/>
<stop offset="1" stop-color="#FE0657" stop-opacity="0"/>
</radialGradient>
<radialGradient id="paint2_radial_30_10" cx="0" cy="0" r="1" gradientUnits="userSpaceOnUse" gradientTransform="translate(19.4521 35.8466) rotate(-59.8703) scale(11.7835 15.3408)">
<stop stop-color="#FFCC00"/>
<stop offset="1" stop-color="#FFCC00" stop-opacity="0"/>
</radialGradient>
<radialGradient id="paint3_radial_30_10" cx="0" cy="0" r="1" gradientUnits="userSpaceOnUse" gradientTransform="translate(5.54368 2.10372) rotate(164.274) scale(22.5573 7.68524)">
<stop stop-color="#780CFF"/>
<stop offset="1" stop-color="#820BFF" stop-opacity="0"/>
</radialGradient>
<clipPath id="clip0_30_10">
<rect width="35.7" height="35.7" fill="white" transform="translate(0.699951 0.650024)"/>
</clipPath>
<clipPath id="clip1_30_10">
<rect width="35.7" height="35.7" fill="white" transform="translate(0.699951 0.650024)"/>
</clipPath>
</defs>
</svg>
