<svg width="128" height="77" viewBox="0 0 128 77" fill="none" xmlns="http://www.w3.org/2000/svg">
<path d="M4.224 58C3.66933 58 3.392 57.7227 3.392 57.168L4.224 16.912C4.224 16.3573 4.50133 16.08 5.056 16.08H14.272C14.6987 16.08 14.9973 16.2933 15.168 16.72L25.536 38.864L35.776 16.72C35.9893 16.2933 36.3093 16.08 36.736 16.08H45.888C46.4 16.08 46.656 16.3573 46.656 16.912L47.552 57.168C47.552 57.7227 47.2747 58 46.72 58H39.424C38.8693 58 38.592 57.7227 38.592 57.168L38.208 39.696C38.1653 37.9467 38.1653 36.1547 38.208 34.32C38.2933 32.4427 38.3787 30.6293 38.464 28.88H38.272C37.5467 30.5867 36.7787 32.336 35.968 34.128C35.1573 35.92 34.3253 37.648 33.472 39.312L26.56 53.328C26.3893 53.6693 26.0693 53.84 25.6 53.84H25.28C24.8533 53.84 24.5547 53.6693 24.384 53.328L17.408 39.184C16.5973 37.52 15.7867 35.8133 14.976 34.064C14.1653 32.272 13.4187 30.544 12.736 28.88H12.544C12.6293 30.6293 12.6933 32.4213 12.736 34.256C12.7787 36.0907 12.7787 37.8613 12.736 39.568L12.352 57.168C12.352 57.7227 12.0747 58 11.52 58H4.224ZM71.9295 58.768C66.1695 58.768 61.7962 57.3813 58.8095 54.608C55.8655 51.8347 54.3935 47.8027 54.3935 42.512V31.568C54.3935 26.2347 55.8655 22.2027 58.8095 19.472C61.7962 16.6987 66.1695 15.312 71.9295 15.312C77.7322 15.312 82.1055 16.6987 85.0495 19.472C88.0362 22.2027 89.5295 26.2347 89.5295 31.568V42.512C89.5295 47.8027 88.0362 51.8347 85.0495 54.608C82.1055 57.3813 77.7322 58.768 71.9295 58.768ZM71.9295 50.832C74.7882 50.832 76.9002 50.0853 78.2655 48.592C79.6735 47.056 80.3775 44.8587 80.3775 42V32.08C80.3775 29.2213 79.6735 27.0453 78.2655 25.552C76.9002 24.016 74.7882 23.248 71.9295 23.248C69.1562 23.248 67.0655 24.016 65.6575 25.552C64.2495 27.0453 63.5455 29.2213 63.5455 32.08V42C63.5455 44.8587 64.2495 47.056 65.6575 48.592C67.0655 50.0853 69.1562 50.832 71.9295 50.832ZM98.056 58C97.5013 58 97.224 57.7227 97.224 57.168V16.912C97.224 16.3573 97.5013 16.08 98.056 16.08H123.592C124.147 16.08 124.424 16.3573 124.424 16.912V23.248C124.424 23.76 124.147 24.016 123.592 24.016H106.376V33.104H122.056C122.611 33.104 122.888 33.3813 122.888 33.936V39.824C122.888 40.336 122.611 40.592 122.056 40.592H106.376V50.064H123.592C124.147 50.064 124.424 50.32 124.424 50.832V57.168C124.424 57.7227 124.147 58 123.592 58H98.056Z" fill="#21252B"/>
<circle cx="111.5" cy="4.5" r="4.5" fill="#21252B"/>
</svg>
