<svg width="119" height="119" viewBox="0 0 119 119" fill="none" xmlns="http://www.w3.org/2000/svg">
<g clip-path="url(#clip0_30_14)">
<rect width="119" height="119" fill="white"/>
<g clip-path="url(#clip1_30_14)">
<path d="M60.025 119.05C93.1759 119.05 120.05 92.3994 120.05 59.5248C120.05 26.6502 93.1759 0 60.025 0C26.8741 0 0 26.6502 0 59.5248C0 92.3994 26.8741 119.05 60.025 119.05Z" fill="url(#paint0_linear_30_14)"/>
<path fill-rule="evenodd" clip-rule="evenodd" d="M27.1387 58.8805C44.6314 51.3469 56.2766 46.3411 62.1242 43.9125C78.7672 37.0233 82.2658 35.8338 84.5148 35.7842C85.0146 35.7842 86.1142 35.8834 86.8638 36.4781C87.4636 36.9737 87.6135 37.6181 87.7135 38.1137C87.8135 38.6093 87.9134 39.6501 87.8134 40.4431C86.9138 49.86 83.0155 72.7084 81.0163 83.2157C80.1666 87.6764 78.5173 89.1632 76.918 89.3119C73.4194 89.6093 70.7705 87.0321 67.4219 84.8513C62.1242 81.4315 59.1754 79.3003 54.0275 75.93C48.08 72.0641 51.9284 69.9329 55.327 66.4635C56.2266 65.5714 71.5702 51.6939 71.8701 50.4548C71.9201 50.3061 71.9201 49.7114 71.5702 49.414C71.2204 49.1166 70.7206 49.2157 70.3207 49.3149C69.771 49.414 61.3745 54.965 45.0313 65.9184C42.6323 67.5539 40.4832 68.3469 38.534 68.2974C36.3849 68.2478 32.2866 67.1079 29.1879 66.1166C25.4394 64.9271 22.4407 64.2828 22.6906 62.2012C22.8405 61.1108 24.3399 60.0204 27.1387 58.8805Z" fill="white"/>
</g>
</g>
<defs>
<linearGradient id="paint0_linear_30_14" x1="59.975" y1="0" x2="59.975" y2="118.108" gradientUnits="userSpaceOnUse">
<stop stop-color="#2AABEE"/>
<stop offset="1" stop-color="#229ED9"/>
</linearGradient>
<clipPath id="clip0_30_14">
<rect width="119" height="119" fill="white"/>
</clipPath>
<clipPath id="clip1_30_14">
<rect width="120" height="119" fill="white"/>
</clipPath>
</defs>
</svg>
