<svg width="37" height="37" viewBox="0 0 37 37" fill="none" xmlns="http://www.w3.org/2000/svg">
<g clip-path="url(#clip0_30_14)">
<g clip-path="url(#clip1_30_14)">
<path d="M18.4074 36.3649C28.3527 36.3649 36.4149 28.3698 36.4149 18.5075C36.4149 8.64507 28.3527 0.650024 18.4074 0.650024C8.46213 0.650024 0.399902 8.64507 0.399902 18.5075C0.399902 28.3698 8.46213 36.3649 18.4074 36.3649Z" fill="url(#paint0_linear_30_14)"/>
<path fill-rule="evenodd" clip-rule="evenodd" d="M8.54169 18.3141C13.7895 16.0541 17.2831 14.5523 19.0373 13.8237C24.0302 11.757 25.0798 11.4001 25.7545 11.3853C25.9045 11.3853 26.2343 11.415 26.4592 11.5934C26.6392 11.7421 26.6841 11.9354 26.7141 12.0841C26.7441 12.2328 26.7741 12.545 26.7441 12.7829C26.4742 15.608 25.3047 22.4625 24.705 25.6147C24.4501 26.9529 23.9553 27.399 23.4755 27.4436C22.4259 27.5328 21.6312 26.7596 20.6267 26.1054C19.0373 25.0794 18.1527 24.4401 16.6083 23.429C14.8241 22.2692 15.9786 21.6299 16.9982 20.589C17.2681 20.3214 21.8711 16.1581 21.9611 15.7864C21.9761 15.7418 21.9761 15.5634 21.8711 15.4742C21.7662 15.385 21.6162 15.4147 21.4963 15.4444C21.3314 15.4742 18.8124 17.1395 13.9095 20.4255C13.1898 20.9162 12.545 21.1541 11.9603 21.1392C11.3155 21.1243 10.0861 20.7823 9.15644 20.485C8.03191 20.1281 7.13228 19.9348 7.20725 19.3103C7.25223 18.9832 7.70204 18.6561 8.54169 18.3141Z" fill="white"/>
</g>
</g>
<defs>
<linearGradient id="paint0_linear_30_14" x1="18.3924" y1="0.650024" x2="18.3924" y2="36.0824" gradientUnits="userSpaceOnUse">
<stop stop-color="#2AABEE"/>
<stop offset="1" stop-color="#229ED9"/>
</linearGradient>
<clipPath id="clip0_30_14">
<rect width="35.7" height="35.7" fill="white" transform="translate(0.399902 0.650024)"/>
</clipPath>
<clipPath id="clip1_30_14">
<rect width="36" height="35.7" fill="white" transform="translate(0.399902 0.650024)"/>
</clipPath>
</defs>
</svg>
