<svg width="36" height="37" viewBox="0 0 36 37" fill="none" xmlns="http://www.w3.org/2000/svg">
<g clip-path="url(#clip0_30_6)">
<g clip-path="url(#clip1_30_6)">
<path d="M0 17.786C0 9.70801 0 5.66904 2.50951 3.15953C5.01902 0.650024 9.05798 0.650024 17.136 0.650024H18.564C26.642 0.650024 30.681 0.650024 33.1905 3.15953C35.7 5.66904 35.7 9.70801 35.7 17.786V19.214C35.7 27.292 35.7 31.331 33.1905 33.8405C30.681 36.35 26.642 36.35 18.564 36.35H17.136C9.05798 36.35 5.01902 36.35 2.50951 33.8405C0 31.331 0 27.292 0 19.214V17.786Z" fill="#0077FF"/>
<path d="M18.9953 26.369C10.8587 26.369 6.21779 20.7908 6.02441 11.5089H10.1002C10.234 18.3216 13.2387 21.2073 15.6187 21.8023V11.5089H19.4566V17.3845C21.8069 17.1316 24.2758 14.4541 25.1088 11.5089H28.9466C28.307 15.1384 25.6295 17.8159 23.7255 18.9166C25.6295 19.8091 28.679 22.1445 29.8393 26.369H25.6146C24.7073 23.5427 22.4465 21.3561 19.4566 21.0586V26.369H18.9953Z" fill="white"/>
</g>
</g>
<defs>
<clipPath id="clip0_30_6">
<rect width="35.7" height="35.7" fill="white" transform="translate(0 0.650024)"/>
</clipPath>
<clipPath id="clip1_30_6">
<rect width="35.7" height="35.7" fill="white" transform="translate(0 0.650024)"/>
</clipPath>
</defs>
</svg>
