<svg width="119" height="119" viewBox="0 0 119 119" fill="none" xmlns="http://www.w3.org/2000/svg">
<g clip-path="url(#clip0_30_6)">
<rect width="119" height="119" fill="white"/>
<g clip-path="url(#clip1_30_6)">
<path d="M0 57.12C0 30.1933 0 16.7301 8.36503 8.36503C16.7301 0 30.1933 0 57.12 0H61.88C88.8067 0 102.27 0 110.635 8.36503C119 16.7301 119 30.1933 119 57.12V61.88C119 88.8067 119 102.27 110.635 110.635C102.27 119 88.8067 119 61.88 119H57.12C30.1933 119 16.7301 119 8.36503 110.635C0 102.27 0 88.8067 0 61.88V57.12Z" fill="#0077FF"/>
<path d="M63.318 85.7299C36.1959 85.7299 20.7261 67.1361 20.0815 36.1961H33.6674C34.1136 58.9053 44.1292 68.5244 52.0625 70.5078V36.1961H64.8555V55.7815C72.6897 54.9386 80.9196 46.0136 83.6962 36.1961H96.489C94.3569 48.2944 85.4319 57.2194 79.0852 60.8886C85.4319 63.8636 95.597 71.6482 99.4645 85.7299H85.3823C82.3577 76.309 74.8218 69.0203 64.8555 68.0286V85.7299H63.318Z" fill="white"/>
</g>
</g>
<defs>
<clipPath id="clip0_30_6">
<rect width="119" height="119" fill="white"/>
</clipPath>
<clipPath id="clip1_30_6">
<rect width="119" height="119" fill="white"/>
</clipPath>
</defs>
</svg>
