<svg width="163" height="119" viewBox="0 0 163 119" fill="none" xmlns="http://www.w3.org/2000/svg">
<g clip-path="url(#clip0_30_18)">
<g clip-path="url(#clip1_30_18)">
<path d="M159.865 18.5835C157.983 11.2649 152.459 5.51364 145.429 3.55456C132.701 0.000245205 81.6391 0.000244141 81.6391 0.000244141C81.6391 0.000244141 30.5776 0.000245205 17.8491 3.55456C10.8196 5.51364 5.29544 11.2649 3.41373 18.5835C-0.000243119 31.8352 -0.000244141 59.5001 -0.000244141 59.5001C-0.000244141 59.5001 -0.000243119 87.1652 3.41373 100.417C5.29544 107.735 10.8196 113.487 17.8491 115.445C30.5776 119 81.6391 119 81.6391 119C81.6391 119 132.701 119 145.429 115.445C152.459 113.487 157.983 107.735 159.865 100.417C163.279 87.1652 163.279 59.5001 163.279 59.5001C163.279 59.5001 163.265 31.8352 159.865 18.5835Z" fill="#FF0000"/>
<path d="M65.2959 84.9982L107.715 59.5025L65.2959 34.0064V84.9982Z" fill="white"/>
</g>
</g>
<defs>
<clipPath id="clip0_30_18">
<rect width="163" height="119" fill="white"/>
</clipPath>
<clipPath id="clip1_30_18">
<rect width="512" height="119" fill="white"/>
</clipPath>
</defs>
</svg>
