<svg width="49" height="37" viewBox="0 0 49 37" fill="none" xmlns="http://www.w3.org/2000/svg">
<g clip-path="url(#clip0_30_18)">
<g clip-path="url(#clip1_30_18)">
<path d="M48.0594 6.22524C47.4949 4.02968 45.8375 2.30429 43.7287 1.71656C39.9103 0.650269 24.5916 0.650269 24.5916 0.650269C24.5916 0.650269 9.27321 0.650269 5.45467 1.71656C3.34582 2.30429 1.68856 4.02968 1.12404 6.22524C0.0998538 10.2007 0.0998535 18.5002 0.0998535 18.5002C0.0998535 18.5002 0.0998538 26.7998 1.12404 30.7753C1.68856 32.9708 3.34582 34.6962 5.45467 35.2838C9.27321 36.3502 24.5916 36.3502 24.5916 36.3502C24.5916 36.3502 39.9103 36.3502 43.7287 35.2838C45.8375 34.6962 47.4949 32.9708 48.0594 30.7753C49.0836 26.7998 49.0836 18.5002 49.0836 18.5002C49.0836 18.5002 49.0795 10.2007 48.0594 6.22524Z" fill="#FF0000"/>
<path d="M19.6887 26.1495L32.4145 18.5008L19.6887 10.8519V26.1495Z" fill="white"/>
</g>
</g>
<defs>
<clipPath id="clip0_30_18">
<rect width="48.9" height="35.7" fill="white" transform="translate(0.100098 0.650024)"/>
</clipPath>
<clipPath id="clip1_30_18">
<rect width="153.6" height="35.7" fill="white" transform="translate(0.100098 0.650024)"/>
</clipPath>
</defs>
</svg>
